<svg xmlns="http://www.w3.org/2000/svg" width="1600" height="980" viewBox="0 0 1600 980" role="img" aria-label="Waterfall plan to final submission">
  <defs>
    <linearGradient id="bg" x1="0" y1="0" x2="0" y2="1">
      <stop offset="0%" stop-color="#f7f9fc"/>
      <stop offset="100%" stop-color="#edf2f8"/>
    </linearGradient>
    <marker id="arrow" markerWidth="12" markerHeight="12" refX="10" refY="6" orient="auto" markerUnits="strokeWidth">
      <path d="M0,0 L12,6 L0,12 z" fill="#1d2635"/>
    </marker>
    <style>
      .title { font: 700 44px 'Segoe UI', Arial, sans-serif; fill: #102038; }
      .sub { font: 500 19px 'Segoe UI', Arial, sans-serif; fill: #2f405d; }
      .phase { font: 700 15px 'Segoe UI', Arial, sans-serif; fill: #ffffff; text-anchor: middle; }
      .box-h { font: 700 26px 'Segoe UI', Arial, sans-serif; fill: #1d2433; text-anchor: middle; }
      .box-t { font: 500 18px 'Segoe UI', Arial, sans-serif; fill: #2d374b; text-anchor: middle; }
      .flow { stroke: #1d2635; stroke-width: 4; fill: none; marker-end: url(#arrow); stroke-linejoin: round; }
      .foot { font: 500 19px 'Segoe UI', Arial, sans-serif; fill: #2b3a52; }
    </style>
  </defs>

  <rect x="0" y="0" width="1600" height="980" fill="url(#bg)"/>
  <text x="40" y="70" class="title">WATERFALL PLAN TO FINAL SUBMISSION</text>
  <text x="42" y="102" class="sub">Single-board scope with business-rule-first documentation and verification</text>

  <rect x="80" y="150" width="230" height="110" rx="14" fill="#fff2cf" stroke="#c9a65b" stroke-width="4"/>
  <rect x="96" y="166" width="84" height="28" rx="8" fill="#b78824"/>
  <text x="138" y="185" class="phase">PHASE 1</text>
  <text x="195" y="214" class="box-h">Scope Lock</text>
  <text x="195" y="242" class="box-t">single-board baseline</text>

  <rect x="300" y="255" width="240" height="116" rx="14" fill="#ffe6e6" stroke="#c57474" stroke-width="4"/>
  <rect x="316" y="271" width="84" height="28" rx="8" fill="#a95454"/>
  <text x="358" y="290" class="phase">PHASE 2</text>
  <text x="420" y="322" class="box-h">Requirements</text>
  <text x="420" y="350" class="box-t">business rules and tests</text>

  <rect x="530" y="365" width="250" height="116" rx="14" fill="#efe6ff" stroke="#8f75c9" stroke-width="4"/>
  <rect x="546" y="381" width="84" height="28" rx="8" fill="#7254b6"/>
  <text x="588" y="400" class="phase">PHASE 3</text>
  <text x="655" y="432" class="box-h">Firmware Cutover</text>
  <text x="655" y="460" class="box-t">remove old board coupling</text>

  <rect x="770" y="475" width="250" height="116" rx="14" fill="#e2f1de" stroke="#71a666" stroke-width="4"/>
  <rect x="786" y="491" width="84" height="28" rx="8" fill="#4e8b43"/>
  <text x="828" y="510" class="phase">PHASE 4</text>
  <text x="895" y="542" class="box-h">Tool Alignment</text>
  <text x="895" y="570" class="box-t">launcher and env cleanup</text>

  <rect x="1010" y="585" width="240" height="112" rx="14" fill="#dcecff" stroke="#6895c8" stroke-width="4"/>
  <rect x="1026" y="601" width="84" height="28" rx="8" fill="#3d79b6"/>
  <text x="1068" y="620" class="phase">PHASE 5</text>
  <text x="1130" y="650" class="box-h">Diagram Pack</text>
  <text x="1130" y="676" class="box-t">flow block circuit svg</text>

  <rect x="1230" y="695" width="220" height="108" rx="14" fill="#f4f4f4" stroke="#8d8d8d" stroke-width="4"/>
  <rect x="1246" y="711" width="84" height="28" rx="8" fill="#6f6f6f"/>
  <text x="1288" y="730" class="phase">PHASE 6</text>
  <text x="1340" y="758" class="box-h">Validation</text>
  <text x="1340" y="782" class="box-t">main-board build pass</text>

  <rect x="1330" y="810" width="240" height="120" rx="14" fill="#ffe3df" stroke="#d17a70" stroke-width="4"/>
  <rect x="1346" y="826" width="84" height="28" rx="8" fill="#ba5f53"/>
  <text x="1388" y="845" class="phase">PHASE 7</text>
  <text x="1450" y="878" class="box-h">Final Delivery</text>
  <text x="1450" y="904" class="box-t">submission pack and evidence</text>

  <path class="flow" d="M310 205 L350 205 L350 255 L420 255"/>
  <path class="flow" d="M540 313 L585 313 L585 365 L655 365"/>
  <path class="flow" d="M780 423 L825 423 L825 475 L895 475"/>
  <path class="flow" d="M1020 531 L1065 531 L1065 585 L1130 585"/>
  <path class="flow" d="M1250 641 L1285 641 L1285 695 L1340 695"/>
  <path class="flow" d="M1450 749 L1500 749 L1500 810 L1450 810"/>

  <rect x="42" y="940" width="1516" height="30" rx="10" fill="#ffffff" stroke="#b8c5d8"/>
  <text x="64" y="961" class="foot">Execution rule: each phase closes with verifiable output before moving to next phase.</text>
</svg>
